<svg xmlns="http://www.w3.org/2000/svg" xmlns:xlink="http://www.w3.org/1999/xlink" width="1080" zoomAndPan="magnify" viewBox="0 0 810 809.999993" height="1080" preserveAspectRatio="xMidYMid meet" version="1.0"><defs><clipPath id="c3b76984ce"><path d="M 61.964844 61.964844 L 748.035156 61.964844 L 748.035156 748.035156 L 61.964844 748.035156 Z M 61.964844 61.964844 " clip-rule="nonzero"/></clipPath><clipPath id="6e4c527c63"><path d="M 405 61.964844 C 215.546875 61.964844 61.964844 215.546875 61.964844 405 C 61.964844 594.453125 215.546875 748.035156 405 748.035156 C 594.453125 748.035156 748.035156 594.453125 748.035156 405 C 748.035156 215.546875 594.453125 61.964844 405 61.964844 Z M 405 61.964844 " clip-rule="nonzero"/></clipPath><clipPath id="beee989599"><path d="M 211.589844 211.980469 L 599 211.980469 L 599 598.019531 L 211.589844 598.019531 Z M 211.589844 211.980469 " clip-rule="nonzero"/></clipPath><clipPath id="8cd5432dfd"><path d="M 405 211.980469 C 298.183594 211.980469 211.589844 298.398438 211.589844 405 C 211.589844 511.601562 298.183594 598.019531 405 598.019531 C 511.816406 598.019531 598.410156 511.601562 598.410156 405 C 598.410156 298.398438 511.816406 211.980469 405 211.980469 Z M 405 211.980469 " clip-rule="nonzero"/></clipPath></defs><rect x="-81" width="972" fill="#ffffff" y="-80.999999" height="971.999992" fill-opacity="0"/><rect x="-81" width="972" fill="#ffffff" y="-80.999999" height="971.999992" fill-opacity="0"/><g clip-path="url(#c3b76984ce)"><g clip-path="url(#6e4c527c63)"><path fill="#fff4d3" d="M 61.964844 61.964844 L 748.035156 61.964844 L 748.035156 748.035156 L 61.964844 748.035156 Z M 61.964844 61.964844 " fill-opacity="1" fill-rule="nonzero"/></g></g><g clip-path="url(#beee989599)"><g clip-path="url(#8cd5432dfd)"><path fill="rgb(232, 205, 244)" d="M 211.589844 211.980469 L 599.140625 211.980469 L 599.140625 598.019531 L 211.589844 598.019531 Z M 211.589844 211.980469 " fill-opacity="1" fill-rule="nonzero"/></g></g></svg>