<svg xmlns="http://www.w3.org/2000/svg" xmlns:xlink="http://www.w3.org/1999/xlink" width="1080" zoomAndPan="magnify" viewBox="0 0 810 809.999993" height="1080" preserveAspectRatio="xMidYMid meet" version="1.0"><defs><clipPath id="48fe473555"><path d="M 56 55 L 755 55 L 755 754 L 56 754 Z M 56 55 " clip-rule="nonzero"/></clipPath><clipPath id="8c6f553a7b"><path d="M 56.230469 649.652344 L 650.269531 55.617188 L 754.382812 159.730469 L 160.347656 753.769531 Z M 56.230469 649.652344 " clip-rule="nonzero"/></clipPath><clipPath id="82c20ea584"><path d="M 55 56 L 754 56 L 754 755 L 55 755 Z M 55 56 " clip-rule="nonzero"/></clipPath><clipPath id="3a63da7e8b"><path d="M 159.730469 56.230469 L 753.765625 650.265625 L 649.652344 754.382812 L 55.613281 160.34375 Z M 159.730469 56.230469 " clip-rule="nonzero"/></clipPath></defs><rect x="-81" width="972" fill="none" y="-80.999999" height="971.999992" fill-opacity="1"/><rect x="-81" width="972" fill="#ffffff" y="-80.999999" height="971.999992" fill-opacity="0"/><g clip-path="url(#48fe473555)"><g clip-path="url(#8c6f553a7b)"><path fill="#eb7878" d="M 56.230469 649.652344 L 650.421875 55.460938 L 754.539062 159.578125 L 160.347656 753.769531 Z M 56.230469 649.652344 " fill-opacity="1" fill-rule="nonzero"/></g></g><g clip-path="url(#82c20ea584)"><g clip-path="url(#3a63da7e8b)"><path fill="#eb7878" d="M 159.730469 56.230469 L 753.921875 650.421875 L 649.804688 754.535156 L 55.613281 160.34375 Z M 159.730469 56.230469 " fill-opacity="1" fill-rule="nonzero"/></g></g></svg>